<svg width="8" height="10" viewBox="0 0 8 10" fill="none" xmlns="http://www.w3.org/2000/svg">
<path d="M3.90279 9.75699C3.13153 9.75699 2.47419 9.51908 1.93077 9.04326C1.38735 8.56745 1.11546 7.99227 1.11508 7.31774V2.9271C0.808436 2.9271 0.546019 2.83164 0.327835 2.64073C0.10965 2.44982 0.000371695 2.22004 0 1.9514V0.975699C0 0.707381 0.109278 0.477767 0.327835 0.286855C0.546391 0.0959437 0.808808 0.000325233 1.11508 0H6.6905C6.99715 0 7.25975 0.0956185 7.47831 0.286855C7.69687 0.478092 7.80596 0.707707 7.80559 0.975699V1.9514C7.80559 2.21971 7.6965 2.44949 7.47831 2.64073C7.26013 2.83197 6.99752 2.92742 6.6905 2.9271V7.31774C6.6905 7.9926 6.41861 8.56793 5.87482 9.04375C5.33103 9.51957 4.67369 9.75731 3.90279 9.75699ZM3.90279 8.78129C4.36741 8.78129 4.76234 8.639 5.08757 8.35442C5.4128 8.06984 5.57542 7.72428 5.57542 7.31774H3.90279V6.34204H5.57542V5.36634H3.90279V4.39064H5.57542V2.9271H2.23017V7.31774C2.23017 7.72428 2.39278 8.06984 2.71802 8.35442C3.04325 8.639 3.43818 8.78129 3.90279 8.78129Z" fill="#2C334E" fill-opacity="0.58"/>
</svg>
